<?xml version="1.0" standalone="no"?>
<!DOCTYPE svg PUBLIC "-//W3C//DTD SVG 20010904//EN"
 "http://www.w3.org/TR/2001/REC-SVG-20010904/DTD/svg10.dtd">
<svg version="1.0" xmlns="http://www.w3.org/2000/svg"
 width="451.000000pt" height="108.000000pt" viewBox="0 0 451.000000 108.000000"
 preserveAspectRatio="xMidYMid meet">

<g transform="translate(0.000000,108.000000) scale(0.100000,-0.100000)"
fill="#000000" stroke="none">
<path d="M0 540 l0 -540 1420 0 c781 0 1420 2 1420 4 0 2 -20 16 -43 29 -63
37 -115 99 -154 184 -42 92 -52 143 -42 224 10 87 41 164 92 235 l42 59 6 -76
c4 -42 10 -83 15 -92 8 -13 38 -3 209 69 109 47 201 87 203 88 8 9 -65 79
-107 104 -40 23 -57 27 -126 27 -69 0 -89 -4 -145 -32 -164 -79 -276 -216
-335 -408 l-21 -69 -14 62 c-15 74 -9 289 11 342 42 115 160 245 271 299 l63
30 -1382 1 -1383 0 0 -540z m1960 295 c-30 -32 -22 -81 31 -206 23 -52 42 -98
43 -104 2 -5 10 -27 19 -49 9 -21 17 -42 17 -47 0 -5 4 -9 8 -9 11 0 51 131
92 302 20 81 20 89 5 117 -15 30 -15 31 7 32 42 2 173 -3 177 -6 2 -2 -12 -19
-30 -37 -28 -27 -39 -51 -58 -123 -13 -49 -43 -160 -67 -246 -24 -86 -44 -164
-44 -172 0 -9 12 -29 26 -46 l26 -31 -51 -1 c-277 -3 -304 -2 -307 19 0 4 -5
18 -11 32 -6 14 -40 106 -77 205 -37 99 -79 209 -93 245 -14 36 -26 70 -27 76
-1 6 -9 23 -19 37 -9 15 -17 31 -17 36 0 13 363 20 369 8 2 -5 -7 -19 -19 -32z
m-1475 18 c12 -34 220 -383 228 -383 4 0 7 71 7 159 0 152 -1 160 -25 195 -14
20 -25 39 -25 41 0 3 41 5 90 5 50 0 90 -2 90 -5 0 -2 -9 -19 -20 -37 -19 -31
-20 -51 -20 -295 l0 -261 25 -30 c14 -17 25 -33 25 -36 0 -3 -62 -6 -137 -6
l-138 0 -118 200 c-65 110 -121 200 -125 200 -4 0 -6 -76 -4 -169 3 -164 4
-170 27 -196 14 -14 25 -28 25 -31 0 -2 -43 -4 -95 -4 -52 0 -95 2 -95 5 0 3
10 19 22 36 21 28 23 44 27 181 2 83 0 202 -4 266 -7 109 -9 116 -36 143 -16
16 -29 31 -29 34 0 3 67 5 149 5 133 0 150 -2 156 -17z m933 2 c4 -3 7 -10 8
-13 0 -4 5 -18 11 -32 6 -14 40 -106 77 -205 37 -99 79 -209 93 -245 14 -36
26 -70 27 -76 1 -6 9 -23 19 -37 9 -15 17 -31 17 -36 0 -6 -71 -11 -185 -13
-193 -3 -206 0 -164 38 29 26 20 83 -32 204 -23 52 -42 100 -43 105 -2 6 -10
27 -19 49 -9 21 -17 42 -17 47 0 5 -4 9 -8 9 -11 0 -51 -131 -92 -302 -20 -81
-20 -89 -5 -117 15 -30 15 -31 -7 -32 -42 -2 -173 3 -177 6 -2 2 12 19 30 37
28 27 39 51 58 123 13 50 43 160 67 246 24 86 44 164 44 172 0 9 -11 29 -25
46 l-26 30 53 3 c92 5 288 1 296 -7z"/>
<path d="M3200 1065 c7 -8 18 -15 24 -15 24 0 134 -86 175 -135 23 -27 69
-104 101 -170 59 -119 60 -120 37 -131 -12 -6 -164 -71 -337 -144 -173 -73
-319 -136 -324 -140 -14 -14 73 -98 120 -116 32 -12 65 -15 127 -12 111 6 211
54 313 150 39 38 74 68 77 68 6 0 8 -10 27 -145 6 -44 13 -92 15 -106 3 -21
-5 -32 -46 -63 -27 -21 -77 -53 -112 -72 l-62 -34 588 0 587 0 0 540 0 540
-661 0 c-587 0 -660 -2 -649 -15z m742 -208 c5 -23 223 -387 230 -387 13 0 9
309 -3 333 -6 12 -21 32 -32 45 l-20 22 96 0 c53 0 97 -2 97 -5 0 -2 -9 -19
-20 -37 -19 -31 -20 -51 -20 -295 l0 -261 25 -30 c14 -17 25 -33 25 -36 0 -3
-62 -6 -137 -6 l-138 0 -119 200 c-65 110 -122 200 -126 200 -4 0 -8 -70 -9
-155 -2 -144 0 -159 19 -190 12 -19 26 -35 31 -35 5 0 9 -4 9 -10 0 -6 -40
-10 -101 -10 l-101 0 26 31 26 31 0 268 0 269 -31 36 -31 35 150 0 c115 0 151
-3 154 -13z"/>
</g>
</svg>
